PathFileType	4	(X/Y/Z)	C:\Users\Biomechanik\SynologyDrive\AlexP\Athlete_03\Athlete_3_25_03_31\Walking_07\marker_experimental.trc
DataRate	CameraRate	NumFrames	NumMarkers	Units	OrigDataRate	OrigDataStartFrame	OrigNumFrames
200.000000	200.000000	4	53	mm	200.000000	393	450
Frame#	Time	GLAB			RFHD			LFHD			C7			T6			SPINMOL			SPINM2			SPINM3			T12			BELTOL			BELT2			BELT3			SACROL			SACR2			SACR3			LTHOL			LTH2			LTH3			LSHAOL			LSHA2			LSHA3			LHEE			LTOE			LM5			RTHOL			RTH2			RTH3			RSHAOL			RSHA2			RSHA3			RHEE			RTOE			RM5			STRN			XIPH			LACR			LUAOL			LUA2			LUA3			LLAOL			LLA2			LLA3			LWRR			LWRU			RACR			RUAOL			RUA2			RUA3			RLAOL			RLA2			RLA3			RWRR			RWRU			
		X1	Y1	Z1	X2	Y2	Z2	X3	Y3	Z3	X4	Y4	Z4	X5	Y5	Z5	X6	Y6	Z6	X7	Y7	Z7	X8	Y8	Z8	X9	Y9	Z9	X10	Y10	Z10	X11	Y11	Z11	X12	Y12	Z12	X13	Y13	Z13	X14	Y14	Z14	X15	Y15	Z15	X16	Y16	Z16	X17	Y17	Z17	X18	Y18	Z18	X19	Y19	Z19	X20	Y20	Z20	X21	Y21	Z21	X22	Y22	Z22	X23	Y23	Z23	X24	Y24	Z24	X25	Y25	Z25	X26	Y26	Z26	X27	Y27	Z27	X28	Y28	Z28	X29	Y29	Z29	X30	Y30	Z30	X31	Y31	Z31	X32	Y32	Z32	X33	Y33	Z33	X34	Y34	Z34	X35	Y35	Z35	X36	Y36	Z36	X37	Y37	Z37	X38	Y38	Z38	X39	Y39	Z39	X40	Y40	Z40	X41	Y41	Z41	X42	Y42	Z42	X43	Y43	Z43	X44	Y44	Z44	X45	Y45	Z45	X46	Y46	Z46	X47	Y47	Z47	X48	Y48	Z48	X49	Y49	Z49	X50	Y50	Z50	X51	Y51	Z51	X52	Y52	Z52	X53	Y53	Z53	

394	1.965	2272.25146484375	1567.41943359375	155.5735931396489	2227.6982421875	1608.955688476563	216.5736083984379	2242.31884765625	1599.935302734375	79.25068664550822	2023.403442382812	1444.069091796875	133.6084747314457	1971.353881835938	1269.400512695313	131.7078399658207	1968.293212890625	1228.638061523438	110.8503417968754	1959.594360351562	1221.387451171875	160.0807800292972	1975.278198242188	1165.297729492188	128.2862243652347	2004.880615234375	1101.704223632813	134.3574676513676	1970.294921875	1066.856201171875	117.1778640747074	1967.615112304688	1064.20458984375	167.2635040283207	1967.824096679688	1004.195861816406	137.2325592041019	1987.150024414062	958.3607177734376	123.4625854492191	1989.117431640625	955.9105224609376	174.6614532470707	1976.531372070312	897.1345825195314	146.7735443115238	2095.390869140625	680.8273925781251	-23.06990242004356	2045.03271484375	626.6503906250001	6.345085144043344	2093.379150390625	622.3307495117189	-6.20862483978233	2072.48095703125	325.4481811523439	8.255268096924208	2021.297607421875	266.4935607910157	23.63312339782752	2071.326416015625	264.1158752441407	18.15241813659706	1993.662963867188	79.69939422607435	119.7253341674808	2209.091552734375	42.03757095336928	123.7167434692387	2160.50341796875	27.43657112121595	21.76154327392618	2144.0908203125	684.2745361328126	356.055084228516	2216.946044921875	654.3947753906251	371.2716064453129	2176.720703125	631.0455932617189	353.623687744141	2144.25244140625	399.1256408691407	350.510162353516	2142.53076171875	321.510223388672	340.6951599121098	2106.848388671875	354.1843261718751	328.9963684082035	1986.417358398438	189.0506286621095	197.3499755859379	2161.690673828125	75.30093383789075	233.4645996093754	2095.835205078125	82.11100769042982	322.6747436523441	2192.991455078125	1349.9033203125	151.9679412841801	2217.01513671875	1209.008422851563	157.2513427734379	2110.639892578125	1404.754028320313	-31.80919075012168	2129.00732421875	1251.151977539063	-132.1371459960934	2126.120849609375	1188.337524414063	-151.2854461669918	2170.740478515625	1200.211059570313	-128.2812499999996	2216.555419921875	1000.210571289063	-179.9980926513668	2198.86376953125	924.2666625976564	-163.233001708984	2239.665771484375	945.7478027343751	-176.7598876953121	2297.284912109375	858.5554809570314	-174.7591247558589	2333.816650390625	877.8599853515626	-108.4347457885738	2087.15625	1406.787719726563	310.9206237792973	2059.076171875	1259.719116210938	412.111724853516	2083.021240234375	1199.294067382813	423.7288513183598	2032.62255859375	1202.279052734375	430.033843994141	2068.14990234375	986.8398437500001	474.7331237792973	2121.92578125	939.5429687500001	509.8712158203129	2084.210693359375	925.6135253906251	482.3204956054691	2125.260986328125	848.8633422851564	505.7969665527348	2170.354248046875	832.7221069335939	440.4842529296879	
395	1.97	2278.39501953125	1567.008056640625	156.0592041015629	2233.99658203125	1608.571533203125	217.1154937744145	2248.688720703125	1599.863891601563	79.80062866210979	2029.266723632812	1444.360107421875	133.5675964355472	1977.160400390625	1269.644653320313	131.6629028320316	1974.06103515625	1228.878540039063	110.8257446289066	1965.43212890625	1221.668579101563	160.0816345214847	1981.093017578125	1165.551635742188	128.294830322266	2010.659790039062	1102.005004882813	134.4572906494144	1975.923950195312	1067.351196289063	117.6122512817387	1973.475341796875	1064.77197265625	167.7253570556644	1973.402587890625	1004.711608886719	137.7140045166019	1992.671142578125	958.7173461914064	124.012977600098	1994.9755859375	956.2670288085939	175.1986999511722	1982.205932617188	897.5003051757814	147.3936462402347	2098.59423828125	681.3510742187501	-22.97601699829063	2047.93603515625	627.5477294921876	6.645002841949839	2096.197265625	622.8452758789064	-6.221754074096294	2073.5009765625	325.9912414550782	8.234438896179579	2022.087646484375	267.2630920410157	23.76962852478065	2072.10498046875	264.6600036621095	18.16281318664589	1993.970336914062	80.4011154174806	119.7897186279301	2209.232666015625	41.99590682983412	123.6852493286137	2160.524658203125	27.44477653503431	21.76035690307657	2152.287353515625	684.8588256835939	356.2504577636723	2225.547119140625	655.4710693359376	370.3490905761723	2185.170166015625	631.8067016601564	353.4685363769535	2155.56884765625	396.5689392089845	349.6891479492191	2156.18701171875	318.9373474121095	340.0149536132816	2119.4873046875	350.5041503906251	328.3275756835941	2003.9228515625	181.4379730224611	197.3221435546879	2182.898681640625	73.80998992919935	233.941070556641	2116.5322265625	78.31262207031263	323.0263366699223	2198.774658203125	1350.202880859375	151.9102325439457	2222.808837890625	1209.26513671875	156.9624786376957	2116.42333984375	1405.262451171875	-31.79083824157676	2135.550537109375	1252.028442382813	-132.3210144042965	2133.1357421875	1189.251098632813	-151.6320800781246	2177.637451171875	1201.396606445313	-128.5834960937496	2225.86083984375	1001.963684082031	-180.1936492919918	2209.487060546875	925.8884277343751	-163.3390502929684	2250.07568359375	948.0155029296876	-176.7080841064449	2309.2255859375	861.8380126953126	-174.2152709960933	2345.166259765625	882.1271972656251	-107.8826446533199	2092.73046875	1406.91845703125	310.8806457519535	2063.643798828125	1259.91357421875	412.0017700195316	2087.270751953125	1199.427978515625	423.8236999511723	2036.84130859375	1202.536865234375	429.5868530273441	2071.228271484375	987.1551513671876	474.7632446289066	2124.504638671875	939.5661621093751	510.4557800292973	2086.927001953125	925.8023681640626	482.5447082519535	2127.41748046875	848.8637695312501	506.3237609863285	2173.332763671875	832.6117553710939	441.6086120605473	
396	1.975	2284.544189453125	1566.549560546875	156.5614776611332	2240.288818359375	1608.131713867188	217.674453735352	2255.04736328125	1599.73193359375	80.37022399902385	2035.144409179688	1444.5849609375	133.5479278564457	1982.969970703125	1269.828369140625	131.6587829589847	1979.820434570312	1229.057739257813	110.8465576171879	1971.270751953125	1221.895141601563	160.1286773681644	1986.899047851562	1165.745239257813	128.354400634766	2016.424682617188	1102.242553710938	134.6037292480472	1981.54541015625	1067.800170898438	118.0964355468754	1979.337158203125	1065.291748046875	168.2386169433597	1978.966064453125	1005.180847167969	138.2485351562504	1998.185791015625	959.0361328125001	124.5906066894535	2000.829467773438	956.5679931640626	175.7605743408207	1987.857788085938	897.8213500976564	148.0157470703129	2101.855224609375	681.8179321289064	-22.89171218872032	2050.88916015625	628.3724975585939	6.898909568786998	2099.072265625	623.2998657226564	-6.238399982452007	2074.59033203125	326.4937438964845	8.229396820068741	2022.93701171875	267.9989318847657	23.90101242065467	2072.94384765625	265.164520263672	18.19166374206581	1994.26904296875	81.0773849487306	119.8639602661137	2209.367919921875	41.94443893432631	123.6620407104496	2160.5498046875	27.45925903320326	21.76821327209512	2160.396728515625	685.3519287109376	356.4072570800785	2234.00146484375	656.4155883789064	369.3995056152348	2193.50146484375	632.4608764648439	353.2524719238285	2166.78759765625	393.9478454589845	348.8179321289066	2169.768798828125	316.3639221191407	339.3742065429691	2132.103271484375	346.7713012695314	327.6153259277348	2021.694946289062	173.8475799560548	197.3225860595707	2204.097412109375	72.39087677001966	234.5563354492191	2137.239990234375	74.61515808105482	323.4776000976566	2204.578125	1350.428100585938	151.8598937988285	2228.602783203125	1209.438354492188	156.6814880371098	2122.217529296875	1405.6982421875	-31.74951553344687	2142.0859375	1252.841430664063	-132.4754638671871	2140.134033203125	1190.103271484375	-151.9486694335934	2184.498046875	1202.515014648438	-128.8584136962887	2234.829345703125	1003.642517089844	-180.362396240234	2220.0537109375	927.4987792968751	-163.4262084960934	2260.427001953125	950.2688598632814	-176.6303100585933	2321.0556640625	865.1201782226564	-173.6319274902339	2356.39697265625	886.3806152343751	-107.2962341308589	2098.3369140625	1406.996704101563	310.8576660156254	2068.259765625	1260.06689453125	411.9039001464848	2091.568115234375	1199.513671875	423.9269409179691	2041.111938476562	1202.758178710938	429.172760009766	2074.34326171875	987.4271850585939	474.7978515625004	2127.1259765625	939.5422973632814	511.0212097167973	2089.672607421875	925.9464721679689	482.7721862792973	2129.60595703125	848.8118896484376	506.815338134766	2176.364990234375	832.4760131835939	442.7274169921879	
397	1.98	2290.69970703125	1566.041015625	157.0804443359379	2246.575439453125	1607.633422851563	218.2505950927739	2261.396484375	1599.537231445313	80.95929718017619	2041.036743164062	1444.74072265625	133.5503845214847	1988.783325195312	1269.9482421875	131.6961669921879	1985.573486328125	1229.171997070313	110.9135284423832	1977.112670898438	1222.063354492188	160.2224121093754	1992.69873046875	1165.875244140625	128.4651489257816	2022.177734375	1102.41357421875	134.7960357666019	1987.160400390625	1068.1962890625	118.6292953491215	1985.20068359375	1065.756103515625	168.8005218505863	1984.51806640625	1005.595947265625	138.8326568603519	2003.697998046875	959.3146362304689	125.194602966309	2006.681640625	956.8122558593751	176.3464355468754	1993.486083984375	898.0964965820314	148.6404724121097	2105.17431640625	682.2261352539064	-22.81955909728965	2053.890625	629.1243896484376	7.110612392425915	2102.0009765625	623.6934204101564	-6.258705615996928	2075.74951171875	326.952362060547	8.239076614380265	2023.845581054688	268.6974487304689	24.0233287811283	2073.8427734375	265.6270446777345	18.23740005493202	1994.557250976562	81.72370147705091	119.9493103027347	2209.495361328125	41.88232421875014	123.6467285156254	2160.578125	27.47937202453626	21.78485488891641	2168.414794921875	685.7490234375001	356.5211791992191	2242.306396484375	657.2192993164064	368.423248291016	2201.710693359375	633.0031738281251	352.9711914062504	2177.90478515625	391.2689819335939	347.8956298828129	2183.267578125	313.7991638183595	338.7725830078129	2144.691162109375	342.9993591308595	326.8603515625004	2039.721435546875	166.3147125244142	197.3499908447269	2225.2763671875	71.05944061279311	235.3125305175785	2157.950439453125	71.04170227050794	324.0298156738285	2210.402099609375	1350.576293945313	151.8167572021488	2234.39794921875	1209.526489257813	156.4087677001957	2128.020751953125	1406.060546875	-31.68504905700645	2148.61376953125	1253.589965820313	-132.6012420654293	2147.117431640625	1190.892578125	-152.2346649169918	2191.319091796875	1203.565063476563	-129.1081848144527	2243.376708984375	1005.232055664063	-180.5050506591793	2230.56298828125	929.0953979492189	-163.4949493408199	2270.71826171875	952.5057983398439	-176.5260620117183	2332.7724609375	868.3960571289064	-173.0106506347652	2367.50439453125	890.6124877929689	-106.6749725341792	2103.9775390625	1407.021484375	310.8518371582035	2072.92919921875	1260.177734375	411.8190612792973	2095.918701171875	1199.5498046875	424.0386047363285	2045.439453125	1202.941650390625	428.7942199707035	2077.499755859375	987.6552124023439	474.8386840820316	2129.795654296875	939.4705810546876	511.5669250488285	2092.460693359375	926.0444946289064	482.998687744141	2131.83251953125	848.7069702148439	507.2720336914066	2179.4501953125	832.3109741210939	443.8384399414066	
